PathFileType	4	(X/Y/Z)	..\data\2015002\dynamic\2015002_C4_04.trc
DataRate	CameraRate	NumFrames	NumMarkers	Units	OrigDataRate	OrigDataStartFrame	OrigNumFrames
100.000000	100.000000	4	52	mm	100.000000	105	168
Frame#	Time	L_IAS			L_IPS			R_IPS			R_IAS			L_FTC			L_FLE			L_FME			L_FAX			L_TTC			L_FAL			L_TAM			L_FCC			L_FM1			L_FM2			L_FM5			R_FTC			R_FLE			R_FME			R_FAX			R_TTC			R_FAL			R_TAM			R_FCC			R_FM1			R_FM2			R_FM5			CV7			TV10			SXS			SJN			L_SIA			L_SRS			L_SAA			L_SAE			L_HLE			L_HME			L_UOA			L_RSP			L_UHE			L_HM2			L_HM5			R_SIA			R_SRS			R_SAA			R_SAE			R_HLE			R_HME			R_UOA			R_RSP			R_UHE			R_HM2			R_HM5			
		X1	Y1	Z1	X2	Y2	Z2	X3	Y3	Z3	X4	Y4	Z4	X5	Y5	Z5	X6	Y6	Z6	X7	Y7	Z7	X8	Y8	Z8	X9	Y9	Z9	X10	Y10	Z10	X11	Y11	Z11	X12	Y12	Z12	X13	Y13	Z13	X14	Y14	Z14	X15	Y15	Z15	X16	Y16	Z16	X17	Y17	Z17	X18	Y18	Z18	X19	Y19	Z19	X20	Y20	Z20	X21	Y21	Z21	X22	Y22	Z22	X23	Y23	Z23	X24	Y24	Z24	X25	Y25	Z25	X26	Y26	Z26	X27	Y27	Z27	X28	Y28	Z28	X29	Y29	Z29	X30	Y30	Z30	X31	Y31	Z31	X32	Y32	Z32	X33	Y33	Z33	X34	Y34	Z34	X35	Y35	Z35	X36	Y36	Z36	X37	Y37	Z37	X38	Y38	Z38	X39	Y39	Z39	X40	Y40	Z40	X41	Y41	Z41	X42	Y42	Z42	X43	Y43	Z43	X44	Y44	Z44	X45	Y45	Z45	X46	Y46	Z46	X47	Y47	Z47	X48	Y48	Z48	X49	Y49	Z49	X50	Y50	Z50	X51	Y51	Z51	X52	Y52	Z52	

106	1.05	1037.351440429688	964.4065551757815	-302.0165405273438	846.4284667968752	970.0767211914065	-223.7728118896485	845.8541259765627	973.5654296875002	-122.2158889770508	1035.730712890625	959.6289672851565	-48.07228851318361	979.4593505859377	883.954040527344	-371.4874267578126	1134.005004882813	486.2208557128907	-345.5210571289063	1148.532836914063	486.9398193359376	-210.1589660644532	1128.005859375	421.3788146972657	-339.9898986816407	1197.948852539063	426.059051513672	-290.8518066406251	1189.604248046875	74.13460540771486	-290.8552856445313	1222.6572265625	101.2135162353516	-207.1360168457032	1157.15185546875	15.27443218231202	-213.7771759033204	1358.658447265625	53.66770553588869	-229.1813659667969	1344.048950195313	70.86113739013673	-284.1730651855469	1302.30126953125	42.34778594970704	-329.0533142089844	957.7696533203127	865.8654785156252	9.156570434570314	864.1489257812502	464.9531860351564	-46.22258758544923	889.2797851562502	453.8426208496095	-180.1645812988282	831.6497802734377	413.330047607422	-53.69165802001955	900.8084106445315	381.7720642089844	-95.90267181396486	714.0128173828126	78.22427368164064	-109.2129211425782	766.8291625976564	87.61922454833986	-190.7088928222657	675.2929077148439	31.62935256958009	-179.3765258789063	882.2551269531252	14.96237087249756	-153.0932006835938	881.9860839843752	35.96562194824219	-92.55179595947267	810.8345336914065	18.48645401000977	-40.90378952026368	922.2540283203127	1460.347290039063	-176.6298980712891	827.6578369140627	1211.027587890625	-165.1360321044922	1081.65087890625	1154.668579101563	-175.5771484375	1037.904296875	1362.162109375	-180.376205444336	817.5586547851565	1234.855346679688	-273.2011108398438	854.784362792969	1390.253051757813	-256.3642883300782	899.9799804687502	1391.336303710938	-349.7914733886719	948.3223266601565	1379.275756835938	-384.6194152832032	870.8402099609377	1077.03955078125	-424.060516357422	841.2879638671877	1070.417846679688	-344.6861877441407	833.9763183593752	1047.052978515625	-411.5251770019532	958.069274902344	827.4829711914065	-401.0606079101564	902.5352172851565	829.4624633789065	-456.6102905273439	980.4785766601565	727.9536132812501	-403.6175842285157	891.3045654296877	744.2648925781251	-458.5475463867189	842.3377685546877	1237.73095703125	-39.36010360717774	872.2041015625002	1387.26123046875	-61.92834854125978	938.448181152344	1392.37451171875	14.66168594360352	985.0222778320315	1392.516235351563	28.0247917175293	1074.013549804688	1090.429931640625	92.94129180908205	1026.624633789063	1059.395874023438	18.6646900177002	1047.66015625	1028.7060546875	75.9485321044922	1260.363403320313	926.9700317382815	-10.37796115875244	1242.82958984375	903.198181152344	62.05585098266603	1343.94287109375	863.920837402344	-15.48057842254639	1281.351440429688	831.9221191406252	62.44692230224611	
107	1.06	1050.119750976563	961.7893676757815	-302.3362121582032	859.1850585937502	967.9512939453127	-224.1927795410157	858.420349121094	971.6707153320315	-122.651596069336	1048.313232421875	957.5986938476565	-48.27653121948244	991.3947753906252	880.407897949219	-371.5218811035157	1142.843383789063	482.4384765625001	-342.7871398925782	1157.104248046875	483.4529418945314	-207.0295104980469	1139.381591796875	417.8931579589845	-337.2893066406251	1209.668823242188	425.2030639648439	-288.4390258789063	1220.810546875	73.29501342773439	-289.4846191406251	1252.671508789063	102.2631378173828	-205.936019897461	1191.745483398438	12.76139259338379	-212.2586669921876	1391.105712890625	62.12543869018556	-227.1583251953126	1376.098999023438	77.91568756103517	-282.4248046875001	1336.148681640625	46.57085418701173	-327.1542053222657	969.321472167969	864.509460449219	9.343659400939943	870.1953125000002	464.8211669921876	-46.24198532104493	896.1453857421877	453.2283935546876	-180.0699920654297	836.9690551757815	413.6897888183595	-53.83728790283205	905.984069824219	380.9371337890626	-95.51112365722658	714.7422485351564	80.17403411865236	-109.4979629516602	768.0449218750002	88.87731170654298	-190.7537689208985	675.7811889648439	34.0376205444336	-179.8768463134766	882.2766113281252	15.01198863983155	-153.0628814697266	882.0187988281252	36.0420265197754	-92.41622161865236	810.6993408203127	18.73336982727051	-41.15364837646485	935.2333984375002	1458.10888671875	-177.45068359375	840.3296508789065	1209.042846679688	-165.5976257324219	1094.5009765625	1152.377563476563	-176.0065307617188	1050.909545898438	1359.853759765625	-181.1914520263672	830.2075805664065	1232.572387695313	-273.2039794921876	867.7517700195315	1387.971313476563	-256.8148193359376	912.7203369140627	1388.98779296875	-350.2416687011719	960.5662231445315	1376.689331054688	-385.3604736328126	878.2168579101565	1075.3134765625	-422.396209716797	850.4058837890627	1069.309814453125	-342.5661926269532	841.102233886719	1045.977905273438	-409.0524902343751	961.4031982421877	824.3294067382815	-400.5167236328126	905.1030273437502	827.409851074219	-455.2249755859376	981.1580200195315	724.0582885742189	-402.7969970703126	891.8609008789065	742.5873413085939	-456.7745361328126	855.3316040039065	1235.751831054688	-39.89779281616212	885.2071533203127	1385.320678710938	-62.51636505126955	951.4493408203127	1390.605346679688	13.91763687133789	998.269714355469	1390.83642578125	27.1842269897461	1088.770751953125	1089.343383789063	92.52955627441408	1041.865600585938	1057.94482421875	17.97969245910645	1063.213500976563	1027.072875976563	75.1554641723633	1277.749267578125	929.8027343750002	-11.99615097045899	1260.429077148438	904.8710937500002	59.98498916625978	1362.657470703125	868.7095336914065	-17.41667175292969	1300.301391601563	834.3371582031252	59.68423461914064	
108	1.07	1063.035766601563	959.1085205078127	-302.7065734863282	872.0317993164065	965.8164062500002	-224.7411651611329	871.185241699219	969.761413574219	-123.2159576416016	1061.101440429688	955.6567993164065	-48.50751113891603	1003.465576171875	876.872009277344	-371.6285400390626	1152.07763671875	478.8680114746095	-340.3181152343751	1166.31396484375	480.351531982422	-204.1761932373047	1150.912475585938	414.6588439941407	-334.7240295410157	1221.530639648438	424.4060363769532	-286.2024230957032	1249.619873046875	73.03342437744142	-287.9485778808594	1280.3369140625	103.6408233642578	-204.5658111572266	1223.498291015625	11.11918067932129	-210.6029357910157	1420.688232421875	70.30771636962892	-224.9147491455079	1405.466430664063	84.71227264404298	-280.4447326660157	1367.269775390625	50.79764556884767	-325.0110473632813	981.0134277343752	863.2313232421877	9.470921516418459	876.4846191406252	464.8386230468751	-46.18330383300782	903.3770141601565	452.6683654785157	-179.8602142333985	842.542663574219	414.2174682617189	-53.87199020385744	911.412780761719	380.2087097167969	-94.97570800781251	715.5279541015626	82.39585113525392	-109.6126785278321	769.3146972656252	90.38508605957033	-190.6072845458985	676.2154541015626	36.82292938232423	-180.1651000976563	882.3060302734377	15.09176921844483	-153.014877319336	882.0883789062502	36.15757751464844	-92.24295806884767	810.6164550781252	18.97569084167481	-41.35009002685548	948.300720214844	1455.869995117188	-178.4160614013672	853.1938476562502	1207.029418945313	-166.1765441894532	1107.528564453125	1150.13427734375	-176.610824584961	1064.032592773438	1357.56396484375	-182.155029296875	843.0335083007815	1230.279907226563	-273.3877258300782	880.821228027344	1385.691772460938	-257.4093017578126	925.5820922851565	1386.67041015625	-350.8331298828126	972.909118652344	1374.149780273438	-386.2362365722657	885.8951416015627	1073.664794921875	-420.7861328125001	859.9270629882815	1068.218627929688	-340.4741516113282	848.538757324219	1044.974975585938	-406.6011962890626	965.0818481445315	821.333679199219	-400.1199951171876	907.942565917969	825.5330810546877	-453.8594360351564	982.172790527344	720.3939208984376	-402.1322631835939	892.6992797851565	741.1408691406251	-454.9498291015626	868.4321289062502	1233.722045898438	-40.59416580200196	898.2915039062502	1383.354858398438	-63.26696395874025	964.5159912109377	1388.799438476563	13.00814151763916	1011.589111328125	1389.10888671875	26.21919059753419	1103.23779296875	1088.138549804688	92.06903076171876	1056.825317382813	1056.427001953125	17.22293472290039	1078.414672851563	1025.343627929688	74.30128479003908	1294.635986328125	932.4033203125002	-13.57616138458252	1277.501586914063	906.304138183594	57.93999481201173	1380.768798828125	873.2022705078127	-19.28016471862793	1318.66845703125	836.533142089844	56.95370101928712	
109	1.08	1076.088012695313	956.4123535156252	-303.1258239746094	884.9639892578127	963.715026855469	-225.3914947509766	884.1678466796877	967.8591918945315	-123.8808135986328	1074.103515625	953.7981567382815	-48.75850677490236	1015.709350585938	873.478942871094	-371.8111572265626	1161.945434570313	475.6349182128907	-338.1756591796876	1176.381103515625	477.7557067871095	-201.6961212158204	1162.75537109375	411.7466430664064	-332.3702392578126	1233.684936523438	423.6692810058595	-284.1916198730469	1275.7158203125	73.09945678710939	-286.2452087402344	1305.415893554688	105.0529174804688	-203.0205688476563	1251.960815429688	10.15113639831543	-208.8024139404297	1447.173217773438	77.63510894775392	-222.5157165527344	1431.891723632813	90.72885894775392	-278.2859191894532	1395.287963867188	54.59117507934572	-322.6617431640626	992.8684692382815	862.021911621094	9.534379959106447	883.0791625976565	464.9973144531251	-46.02700424194337	910.9923095703127	452.1501770019532	-179.5135040283203	848.4254150390627	414.9075622558595	-53.76958084106447	917.1170043945315	379.5909423828126	-94.27860260009767	716.3872070312501	84.90023040771486	-109.517074584961	770.6492919921877	92.15114593505861	-190.2364501953125	676.6026000976564	40.0009880065918	-180.1891784667969	882.3514404296877	15.18559646606446	-152.9478149414063	882.2019042968752	36.30086898803712	-92.03205871582033	810.5982666015627	19.18844223022461	-41.47784805297852	961.4564208984377	1453.657836914063	-179.5303039550782	866.257019042969	1205.012939453125	-166.8456573486328	1120.7216796875	1147.944946289063	-177.3948822021485	1077.274536132813	1355.31396484375	-183.274887084961	856.013366699219	1227.998413085938	-273.7303771972657	893.9833984375002	1383.438232421875	-258.1433410644532	938.539245605469	1384.3916015625	-351.5677185058594	985.3417968750002	1371.661865234375	-387.2471313476564	893.911560058594	1072.086303710938	-419.262176513672	869.8316650390627	1067.137573242188	-338.4622497558594	856.3228759765627	1044.03955078125	-404.2253417968751	969.1345825195315	818.488464355469	-399.8728332519532	911.1047973632815	823.8215332031252	-452.5349121093751	983.5698852539065	716.9638061523439	-401.618377685547	893.8764648437502	739.9151000976564	-453.0908813476564	881.6467895507815	1231.667724609375	-41.43337631225587	911.4675903320315	1381.393432617188	-64.17689514160158	977.6776123046877	1386.98046875	11.94160079956055	1024.988525390625	1387.363037109375	25.12744522094727	1117.399169921875	1086.826782226563	91.56963348388673	1071.490356445313	1054.851928710938	16.40974998474121	1093.255615234375	1023.537841796875	73.39993286132814	1311.013793945313	934.7540283203127	-15.11332035064698	1294.041748046875	907.4966430664065	55.93617248535158	1398.261474609375	877.369079589844	-21.06997299194336	1336.44482421875	838.4978027343752	54.27382659912111	
